ply
format ascii 1.0
comment VCGLIB generated
element vertex 42
property float x
property float y
property float z
element face 80
property list uchar int vertex_indices
end_header
-217.3031 -112.8928 166.665 
-206.0614 -124.1345 166.665 
-217.3031 -112.8928 180.3371 
-206.0614 -124.1345 180.3371 
217.3031 -112.8928 166.665 
206.0614 -124.1345 166.665 
217.3031 -112.8928 180.3371 
206.0614 -124.1345 180.3371 
-217.3031 80.22202 180.3371 
-206.0614 91.46375 180.3371 
-217.3031 80.22202 166.665 
-206.0614 91.46375 166.665 
206.0614 91.46375 180.3371 
217.3031 80.22202 180.3371 
217.3031 80.22202 166.665 
206.0614 91.46375 166.665 
-192.3358 84.28332 166.665 
-202.8287 73.79047 166.665 
192.3358 84.28332 166.665 
202.8287 73.79047 166.665 
202.8287 -106.4612 166.665 
192.3358 -116.9541 166.665 
-192.3358 -116.9541 166.665 
-202.8287 -106.4612 166.665 
-0 -16.33537 166.665 
-206.0614 91.46375 -0.119744 
-217.3031 80.22202 -0.119744 
-192.3358 84.28332 -0.119744 
-202.8287 73.79047 -0.119744 
206.0614 91.46375 -0.119744 
217.3031 80.22202 -0.119744 
202.8287 73.79047 -0.119744 
192.3358 84.28332 -0.119744 
217.3031 -112.8928 -0.119744 
206.0614 -124.1345 -0.119744 
192.3358 -116.9541 -0.119744 
202.8287 -106.4612 -0.119744 
-206.0614 -124.1345 -0.119744 
-217.3031 -112.8928 -0.119744 
-202.8287 -106.4612 -0.119744 
-192.3358 -116.9541 -0.119744 
-0 -16.33537 180.3371 
3 3 1 5 
3 3 5 7 
3 11 9 12 
3 11 12 15 
3 6 4 14 
3 6 14 13 
3 8 10 0 
3 8 0 2 
3 0 1 3 
3 0 3 2 
3 5 4 6 
3 5 6 7 
3 8 9 11 
3 8 11 10 
3 12 13 14 
3 12 14 15 
3 0 10 17 
3 0 17 23 
3 26 25 27 
3 26 27 28 
3 11 15 18 
3 11 18 16 
3 29 30 31 
3 29 31 32 
3 14 4 20 
3 14 20 19 
3 33 34 35 
3 33 35 36 
3 5 1 22 
3 5 22 21 
3 37 38 39 
3 37 39 40 
3 23 17 24 
3 17 16 24 
3 16 18 24 
3 18 19 24 
3 19 20 24 
3 20 21 24 
3 21 22 24 
3 22 23 24 
3 10 11 25 
3 10 25 26 
3 11 16 27 
3 11 27 25 
3 16 17 28 
3 16 28 27 
3 17 10 26 
3 17 26 28 
3 15 14 30 
3 15 30 29 
3 14 19 31 
3 14 31 30 
3 19 18 32 
3 19 32 31 
3 18 15 29 
3 18 29 32 
3 4 5 34 
3 4 34 33 
3 5 21 35 
3 5 35 34 
3 21 20 36 
3 21 36 35 
3 20 4 33 
3 20 33 36 
3 1 0 38 
3 1 38 37 
3 0 23 39 
3 0 39 38 
3 23 22 40 
3 23 40 39 
3 22 1 37 
3 22 37 40 
3 2 3 41 
3 3 7 41 
3 7 6 41 
3 6 13 41 
3 13 12 41 
3 12 9 41 
3 9 8 41 
3 8 2 41 
